<svg width="277" height="128" viewBox="0 0 277 128" fill="none" xmlns="http://www.w3.org/2000/svg">
<g clip-path="url(#clip0_40_29)">
<path d="M58.7438 120.877C52.1115 116.548 47.2892 108.766 48.2761 100.898C54.2482 107.109 62.2209 111.004 70.7838 111.894C74.0874 112.225 77.7962 112.248 80.1423 114.602C81.6021 116.066 82.2224 118.206 82.2543 120.275C82.2861 122.344 81.7898 124.38 81.2967 126.39L81.4179 126.892C73.5069 126.599 65.3762 125.207 58.7438 120.877Z" fill="#F0F0F0"/>
<path d="M48.4422 100.897C50.9232 106.971 55.252 112.109 60.8139 115.579C61.9979 116.347 63.2955 116.924 64.6589 117.287C65.9984 117.598 67.3966 117.545 68.7083 117.131C69.9391 116.771 71.1564 116.259 72.4533 116.205C73.1175 116.186 73.7781 116.309 74.3917 116.565C75.0052 116.82 75.5579 117.203 76.0135 117.687C77.1801 118.865 77.8547 120.392 78.4625 121.909C79.1374 123.593 79.8117 125.353 81.1862 126.6C81.3527 126.751 81.1089 127.001 80.9426 126.85C78.5513 124.68 78.2881 121.199 76.4084 118.681C75.5312 117.507 74.2954 116.59 72.7846 116.551C71.4635 116.517 70.2077 117.044 68.9647 117.42C67.691 117.841 66.3335 117.944 65.0109 117.72C63.6334 117.427 62.3158 116.901 61.1144 116.166C58.3834 114.553 55.9225 112.519 53.8219 110.141C51.4095 107.439 49.4763 104.344 48.1058 100.99C48.0211 100.782 48.3581 100.69 48.4422 100.897H48.4422Z" fill="white"/>
<path d="M58.9574 114.567C58.2495 115.423 57.2609 115.998 56.1683 116.191C55.0758 116.384 53.9502 116.182 52.9928 115.621C52.7995 115.506 52.9677 115.2 53.1613 115.314C54.0519 115.839 55.1003 116.027 56.1174 115.845C57.1344 115.664 58.0531 115.124 58.7076 114.323C58.85 114.149 59.099 114.394 58.9574 114.567V114.567Z" fill="white"/>
<path d="M68.1083 117.397C67.917 115.133 66.881 113.025 65.2068 111.492C65.0408 111.341 65.2846 111.091 65.4504 111.242C67.1896 112.84 68.2633 115.036 68.4572 117.392C68.4755 117.617 68.1266 117.62 68.1083 117.397Z" fill="white"/>
<path d="M51.8485 107.293C52.1913 107.019 52.4608 106.664 52.6328 106.26C52.8048 105.856 52.874 105.415 52.834 104.978C52.8129 104.754 53.1619 104.751 53.1829 104.974C53.2248 105.457 53.1478 105.943 52.9588 106.39C52.7697 106.837 52.4743 107.231 52.0983 107.537C52.0653 107.569 52.0214 107.587 51.9756 107.587C51.9298 107.588 51.8854 107.571 51.8516 107.54C51.8187 107.507 51.7999 107.463 51.7993 107.417C51.7987 107.371 51.8164 107.326 51.8485 107.293Z" fill="white"/>
<path d="M70.8996 86.5008C70.9168 86.6404 70.9339 86.7801 70.9537 86.9211C71.1945 88.7972 71.587 90.6507 72.1275 92.4631C72.167 92.6039 72.2092 92.746 72.2528 92.8854C73.6013 97.238 75.7448 101.302 78.5745 104.871C79.7017 106.29 80.9352 107.621 82.2641 108.853C84.0995 110.554 86.2246 112.252 87.3584 114.397C87.4792 114.62 87.5862 114.85 87.6786 115.085L82.0201 126.705C81.994 126.725 81.9705 126.746 81.9444 126.766L81.7396 127.24C81.6666 127.182 81.5922 127.119 81.5193 127.06C81.4768 127.027 81.4356 126.99 81.3931 126.956C81.3652 126.933 81.3373 126.909 81.3108 126.89C81.3015 126.882 81.2922 126.874 81.2855 126.868C81.259 126.848 81.2364 126.827 81.2126 126.809C80.7956 126.461 80.3804 126.109 79.9669 125.754C79.9643 125.753 79.9643 125.753 79.9629 125.749C76.8191 123.034 73.8739 120.033 71.477 116.68C71.405 116.579 71.3302 116.477 71.2607 116.371C70.1887 114.853 69.2423 113.25 68.431 111.578C67.9897 110.661 67.595 109.723 67.2485 108.766C66.3578 106.291 65.8613 103.692 65.777 101.063C65.6098 95.8224 67.1178 90.5865 70.6285 86.7884C70.7184 86.6912 70.807 86.5966 70.8996 86.5008Z" fill="#F0F0F0"/>
<path d="M71.034 86.5989C69.3636 92.9454 69.732 99.6578 72.087 105.783C72.5706 107.11 73.2601 108.353 74.1301 109.466C75.0126 110.522 76.1613 111.322 77.457 111.783C78.6565 112.238 79.9359 112.563 81.0042 113.302C81.5455 113.688 81.9991 114.184 82.3354 114.758C82.6717 115.332 82.8831 115.971 82.9556 116.633C83.1792 118.277 82.7997 119.903 82.3735 121.48C81.9002 123.232 81.3809 125.043 81.7287 126.868C81.7709 127.089 81.4259 127.142 81.3839 126.921C80.7787 123.746 82.6611 120.808 82.6733 117.665C82.679 116.198 82.2435 114.72 81.0605 113.778C80.026 112.954 78.7069 112.617 77.4884 112.168C76.2179 111.737 75.0721 111 74.1512 110.023C73.2274 108.959 72.4913 107.744 71.9743 106.432C70.7632 103.497 70.0204 100.39 69.773 97.224C69.4707 93.6121 69.7875 89.9751 70.7096 86.4702C70.7667 86.2533 71.0908 86.3834 71.034 86.5989Z" fill="white"/>
<path d="M71.2129 103.855C70.1334 104.111 68.998 103.975 68.0096 103.47C67.0213 102.965 66.2442 102.125 65.8172 101.099C65.7315 100.891 66.05 100.748 66.1358 100.956C66.5316 101.912 67.2555 102.695 68.1768 103.163C69.0982 103.631 70.1562 103.754 71.1601 103.51C71.3783 103.457 71.4299 103.803 71.2129 103.855V103.855Z" fill="white"/>
<path d="M76.8185 111.633C78.0264 109.71 78.4664 107.402 78.0508 105.169C78.0094 104.948 78.3543 104.895 78.3957 105.116C78.8238 107.441 78.3611 109.842 77.0997 111.84C76.9794 112.03 76.6988 111.823 76.8185 111.633Z" fill="white"/>
<path d="M69.9092 93.7601C70.3475 93.7481 70.776 93.6273 71.1562 93.4084C71.5364 93.1896 71.8563 92.8796 72.0873 92.5063C72.2052 92.3145 72.4857 92.5226 72.3686 92.7131C72.1114 93.1244 71.7576 93.4663 71.3381 93.7091C70.9186 93.9518 70.4461 94.0879 69.962 94.1056C69.9165 94.1111 69.8706 94.099 69.8337 94.0718C69.7967 94.0446 69.7715 94.0044 69.7631 93.9593C69.7564 93.9135 69.7679 93.8669 69.7952 93.8296C69.8226 93.7923 69.8635 93.7673 69.9092 93.7601H69.9092Z" fill="white"/>
<path d="M261.147 120.877C267.779 116.548 272.601 108.766 271.614 100.898C265.642 107.109 257.67 111.004 249.107 111.894C245.803 112.225 242.094 112.248 239.748 114.602C238.288 116.066 237.668 118.206 237.636 120.275C237.604 122.344 238.101 124.38 238.594 126.39L238.473 126.892C246.384 126.599 254.514 125.207 261.147 120.877Z" fill="#F0F0F0"/>
<path d="M271.448 100.897C268.967 106.971 264.638 112.109 259.077 115.579C257.893 116.347 256.595 116.924 255.232 117.287C253.892 117.598 252.494 117.545 251.182 117.131C249.951 116.771 248.734 116.259 247.437 116.205C246.773 116.186 246.112 116.309 245.499 116.565C244.885 116.82 244.333 117.203 243.877 117.687C242.71 118.865 242.036 120.392 241.428 121.909C240.753 123.593 240.079 125.353 238.704 126.6C238.538 126.751 238.782 127.001 238.948 126.85C241.339 124.68 241.602 121.199 243.482 118.681C244.359 117.507 245.595 116.59 247.106 116.551C248.427 116.517 249.683 117.044 250.926 117.42C252.2 117.841 253.557 117.944 254.88 117.72C256.257 117.427 257.575 116.901 258.776 116.166C261.507 114.553 263.968 112.519 266.069 110.141C268.481 107.439 270.414 104.344 271.785 100.99C271.869 100.782 271.532 100.69 271.448 100.897H271.448Z" fill="white"/>
<path d="M260.933 114.567C261.641 115.423 262.63 115.998 263.722 116.191C264.815 116.384 265.94 116.182 266.898 115.621C267.091 115.506 266.923 115.2 266.729 115.314C265.839 115.839 264.79 116.027 263.773 115.845C262.756 115.664 261.837 115.124 261.183 114.323C261.041 114.149 260.792 114.394 260.933 114.567V114.567Z" fill="white"/>
<path d="M251.782 117.397C251.973 115.133 253.009 113.025 254.684 111.492C254.85 111.341 254.606 111.091 254.44 111.242C252.701 112.84 251.627 115.036 251.433 117.392C251.415 117.617 251.764 117.62 251.782 117.397Z" fill="white"/>
<path d="M268.042 107.293C267.699 107.019 267.43 106.664 267.258 106.26C267.086 105.856 267.017 105.415 267.057 104.978C267.078 104.754 266.729 104.751 266.708 104.974C266.666 105.457 266.743 105.943 266.932 106.39C267.121 106.837 267.416 107.231 267.792 107.537C267.825 107.569 267.869 107.587 267.915 107.587C267.961 107.588 268.005 107.571 268.039 107.54C268.072 107.507 268.091 107.463 268.091 107.417C268.092 107.371 268.074 107.326 268.042 107.293Z" fill="white"/>
<path d="M248.991 86.5008C248.974 86.6404 248.957 86.7801 248.937 86.9211C248.696 88.7972 248.303 90.6507 247.763 92.4631C247.723 92.6039 247.681 92.746 247.638 92.8854C246.289 97.238 244.146 101.302 241.316 104.871C240.189 106.29 238.955 107.621 237.626 108.853C235.791 110.554 233.666 112.252 232.532 114.397C232.411 114.62 232.304 114.85 232.212 115.085L237.87 126.705C237.896 126.725 237.92 126.746 237.946 126.766L238.151 127.24C238.224 127.182 238.298 127.119 238.371 127.06C238.414 127.027 238.455 126.99 238.497 126.956C238.525 126.933 238.553 126.909 238.58 126.89C238.589 126.882 238.598 126.874 238.605 126.868C238.632 126.848 238.654 126.827 238.678 126.809C239.095 126.461 239.51 126.109 239.924 125.754C239.926 125.753 239.926 125.753 239.928 125.749C243.071 123.034 246.017 120.033 248.413 116.68C248.486 116.579 248.56 116.477 248.63 116.371C249.702 114.853 250.648 113.25 251.46 111.578C251.901 110.661 252.296 109.723 252.642 108.766C253.533 106.291 254.029 103.692 254.114 101.063C254.281 95.8224 252.773 90.5865 249.262 86.7884C249.172 86.6912 249.083 86.5966 248.991 86.5008Z" fill="#F0F0F0"/>
<path d="M248.856 86.5989C250.527 92.9454 250.158 99.6578 247.803 105.783C247.32 107.11 246.63 108.353 245.76 109.466C244.878 110.522 243.729 111.322 242.434 111.783C241.234 112.238 239.955 112.563 238.886 113.302C238.345 113.688 237.891 114.184 237.555 114.758C237.219 115.332 237.007 115.971 236.935 116.633C236.711 118.277 237.091 119.903 237.517 121.48C237.99 123.232 238.51 125.043 238.162 126.868C238.12 127.089 238.465 127.142 238.507 126.921C239.112 123.746 237.229 120.808 237.217 117.665C237.211 116.198 237.647 114.72 238.83 113.778C239.865 112.954 241.184 112.617 242.402 112.168C243.673 111.737 244.818 111 245.739 110.023C246.663 108.959 247.399 107.744 247.916 106.432C249.127 103.497 249.87 100.39 250.117 97.224C250.42 93.6121 250.103 89.9751 249.181 86.4702C249.124 86.2533 248.8 86.3834 248.856 86.5989Z" fill="white"/>
<path d="M248.678 103.855C249.757 104.111 250.893 103.975 251.881 103.47C252.869 102.965 253.646 102.125 254.073 101.099C254.159 100.891 253.841 100.748 253.755 100.956C253.359 101.912 252.635 102.695 251.714 103.163C250.792 103.631 249.734 103.754 248.73 103.51C248.512 103.457 248.461 103.803 248.678 103.855V103.855Z" fill="white"/>
<path d="M243.072 111.633C241.864 109.71 241.424 107.402 241.84 105.169C241.881 104.948 241.536 104.895 241.495 105.116C241.067 107.441 241.529 109.842 242.791 111.84C242.911 112.03 243.192 111.823 243.072 111.633Z" fill="white"/>
<path d="M249.981 93.7601C249.543 93.7481 249.114 93.6273 248.734 93.4084C248.354 93.1896 248.034 92.8796 247.803 92.5063C247.685 92.3145 247.405 92.5226 247.522 92.7131C247.779 93.1244 248.133 93.4663 248.552 93.7091C248.972 93.9518 249.444 94.0879 249.929 94.1056C249.974 94.111 250.02 94.099 250.057 94.0718C250.094 94.0446 250.119 94.0044 250.127 93.9593C250.134 93.9135 250.123 93.8669 250.095 93.8296C250.068 93.7923 250.027 93.7673 249.981 93.7601H249.981Z" fill="white"/>
<path d="M71.8068 82.6985C71.5559 82.5472 71.3411 82.3427 71.1777 82.0993C71.0142 81.8558 70.906 81.5795 70.8607 81.2897C70.8154 80.9998 70.834 80.7036 70.9154 80.4218C70.9968 80.14 71.1388 79.8794 71.3316 79.6586L67.8036 73.4648L71.4954 73.7037L74.2796 79.5488C74.6286 79.8977 74.8377 80.3628 74.8672 80.8558C74.8968 81.3488 74.7447 81.8356 74.4399 82.2238C74.1351 82.612 73.6987 82.8748 73.2134 82.9623C72.7281 83.0498 72.2277 82.9559 71.8068 82.6985Z" fill="#FFB6B6"/>
<path d="M44.6484 124.922H47.091L48.253 115.486L44.6481 115.486L44.6484 124.922Z" fill="#FFB6B6"/>
<path d="M44.0254 124.124L48.8354 124.124H48.8356C49.6486 124.124 50.4282 124.447 51.0031 125.023C51.5779 125.599 51.9009 126.38 51.901 127.194V127.294L44.0255 127.294L44.0254 124.124Z" fill="#2F2E41"/>
<path d="M61.3833 124.922H63.8256L64.9876 115.486L61.3827 115.486L61.3833 124.922Z" fill="#FFB6B6"/>
<path d="M60.7601 124.124L65.5702 124.124H65.5704C66.3833 124.124 67.163 124.447 67.7378 125.023C68.3127 125.599 68.6357 126.38 68.6357 127.194V127.294L60.7603 127.294L60.7601 124.124Z" fill="#2F2E41"/>
<path d="M67.6637 73.7309C67.6637 73.7309 68.3355 83.3137 67.0124 88.1399C65.6892 92.966 65.453 122.152 65.453 122.152H61.0179L57.1739 82.4238L48.3121 122.292L44.0876 122.001L46.4044 75.0217L67.6637 73.7309Z" fill="#2F2E41"/>
<path d="M48.2371 41.4278L51.6276 38.9495L57.3089 40.1886L58.8467 43.8489L61.4967 45.1649C62.368 45.5977 63.1215 46.2358 63.6922 47.0246C64.2629 47.8134 64.6339 48.7292 64.7733 49.6933L68.5591 75.8796L46.4044 75.0217L43.7222 44.1822C43.6942 43.8601 43.731 43.5356 43.8304 43.2279C43.9298 42.9203 44.0898 42.6357 44.301 42.3911C44.5121 42.1465 44.7701 41.9468 45.0597 41.8038C45.3493 41.6609 45.6645 41.5775 45.9868 41.5588L48.2371 41.4278Z" fill="#3F3D56"/>
<path d="M62.8987 47.2104L64.9449 49.9733L73.8574 77.2013L69.6797 78.8767L62.9903 66.1891L62.8987 47.2104Z" fill="#3F3D56"/>
<path d="M55.4813 37.6557C58.2141 37.6557 60.4296 35.4366 60.4296 32.6992C60.4296 29.9618 58.2141 27.7427 55.4813 27.7427C52.7484 27.7427 50.533 29.9618 50.533 32.6992C50.533 35.4366 52.7484 37.6557 55.4813 37.6557Z" fill="#FFB9B9"/>
<path opacity="0.1" d="M44.694 53.0913L52.7689 64.341L61.795 70.2365L44.694 53.0913Z" fill="black"/>
<path d="M52.8588 36.2823C52.5147 35.594 52.1606 34.8447 52.2921 34.0862C52.4237 33.3277 53.2927 32.6668 53.9633 33.0429C54.2416 32.0356 55.4734 31.5948 56.5103 31.7111C57.5472 31.8273 58.502 32.3283 59.523 32.5434C60.5441 32.7585 61.7841 32.5879 62.3359 31.7009L61.0155 31.678L62.3905 30.0805L60.7967 29.9611C61.3487 29.3643 61.2021 28.3503 60.6676 27.7376C60.1332 27.1249 59.3221 26.835 58.5307 26.6517C56.9509 26.2869 55.3133 26.2492 53.7184 26.5409C52.9664 26.657 52.2418 26.9096 51.5803 27.2862C50.9574 27.6667 50.4427 28.2014 50.0856 28.8388C49.7004 29.5579 49.4922 30.3587 49.4783 31.1747C49.4548 32.2676 49.7055 33.349 50.2075 34.3197C50.7095 35.2905 51.4467 36.1194 52.3515 36.7307" fill="#2F2E41"/>
<path d="M237.099 127.421H83.5363C81.9549 127.419 80.4387 126.789 79.3205 125.669C78.2023 124.549 77.5732 123.031 77.5714 121.447V5.9746C77.5732 4.39057 78.2023 2.87194 79.3205 1.75187C80.4387 0.631807 81.9549 0.00177834 83.5363 0H237.099C238.68 0.00180645 240.196 0.631849 241.314 1.75191C242.432 2.87198 243.061 4.39059 243.063 5.9746V121.447C243.061 123.031 242.432 124.549 241.314 125.669C240.196 126.789 238.68 127.419 237.099 127.421Z" fill="#E4E4E4"/>
<path d="M198.45 53.0184H174.745C173.574 53.0184 172.45 52.5522 171.622 51.7225C170.793 50.8928 170.328 49.7674 170.328 48.594C170.328 47.4206 170.793 46.2953 171.622 45.4655C172.45 44.6358 173.574 44.1697 174.745 44.1697H198.45C199.621 44.1697 200.745 44.6358 201.573 45.4655C202.402 46.2953 202.867 47.4206 202.867 48.594C202.867 49.7674 202.402 50.8928 201.573 51.7225C200.745 52.5522 199.621 53.0184 198.45 53.0184Z" fill="white"/>
<path d="M177.69 65.1116H172.095C171.666 65.1116 171.254 64.9407 170.95 64.6364C170.646 64.3322 170.475 63.9196 170.475 63.4893C170.475 63.0591 170.646 62.6465 170.95 62.3422C171.254 62.038 171.666 61.8671 172.095 61.8671H177.69C178.12 61.8671 178.531 62.038 178.835 62.3422C179.139 62.6465 179.31 63.0591 179.31 63.4893C179.31 63.9196 179.139 64.3322 178.835 64.6364C178.531 64.9407 178.12 65.1116 177.69 65.1116Z" fill="white"/>
<path d="M200.953 65.1116H195.358C194.929 65.1116 194.517 64.9407 194.213 64.6364C193.909 64.3322 193.739 63.9196 193.739 63.4893C193.739 63.0591 193.909 62.6465 194.213 62.3422C194.517 62.038 194.929 61.8671 195.358 61.8671H200.953C201.383 61.8671 201.794 62.038 202.098 62.3422C202.402 62.6465 202.573 63.0591 202.573 63.4893C202.573 63.9196 202.402 64.3322 202.098 64.6364C201.794 64.9407 201.383 65.1116 200.953 65.1116Z" fill="white"/>
<path d="M189.174 65.1116H183.579C183.15 65.1116 182.738 64.9407 182.434 64.6364C182.13 64.3322 181.96 63.9196 181.96 63.4893C181.96 63.0591 182.13 62.6465 182.434 62.3422C182.738 62.038 183.15 61.8671 183.579 61.8671H189.174C189.604 61.8671 190.016 62.038 190.319 62.3422C190.623 62.6465 190.794 63.0591 190.794 63.4893C190.794 63.9196 190.623 64.3322 190.319 64.6364C190.016 64.9407 189.604 65.1116 189.174 65.1116Z" fill="white"/>
<path d="M177.69 71.3057H172.095C171.666 71.3057 171.254 71.1348 170.95 70.8305C170.646 70.5263 170.475 70.1137 170.475 69.6834C170.475 69.2532 170.646 68.8405 170.95 68.5363C171.254 68.2321 171.666 68.0612 172.095 68.0612H177.69C178.12 68.0612 178.531 68.2321 178.835 68.5363C179.139 68.8405 179.31 69.2532 179.31 69.6834C179.31 70.1137 179.139 70.5263 178.835 70.8305C178.531 71.1348 178.12 71.3057 177.69 71.3057Z" fill="white"/>
<path d="M200.953 71.3057H195.358C194.929 71.3057 194.517 71.1348 194.213 70.8305C193.909 70.5263 193.739 70.1137 193.739 69.6834C193.739 69.2532 193.909 68.8405 194.213 68.5363C194.517 68.2321 194.929 68.0612 195.358 68.0612H200.953C201.383 68.0612 201.794 68.2321 202.098 68.5363C202.402 68.8405 202.573 69.2532 202.573 69.6834C202.573 70.1137 202.402 70.5263 202.098 70.8305C201.794 71.1348 201.383 71.3057 200.953 71.3057Z" fill="white"/>
<path d="M189.174 71.3057H183.579C183.15 71.3057 182.738 71.1348 182.434 70.8305C182.13 70.5263 181.96 70.1137 181.96 69.6834C181.96 69.2532 182.13 68.8405 182.434 68.5363C182.738 68.2321 183.15 68.0612 183.579 68.0612H189.174C189.604 68.0612 190.016 68.2321 190.319 68.5363C190.623 68.8405 190.794 69.2532 190.794 69.6834C190.794 70.1137 190.623 70.5263 190.319 70.8305C190.016 71.1348 189.604 71.3057 189.174 71.3057Z" fill="white"/>
<path d="M177.69 77.4998H172.095C171.666 77.4998 171.254 77.3289 170.95 77.0246C170.646 76.7204 170.475 76.3078 170.475 75.8775C170.475 75.4473 170.646 75.0346 170.95 74.7304C171.254 74.4262 171.666 74.2552 172.095 74.2552H177.69C178.12 74.2552 178.531 74.4262 178.835 74.7304C179.139 75.0346 179.31 75.4473 179.31 75.8775C179.31 76.3078 179.139 76.7204 178.835 77.0246C178.531 77.3289 178.12 77.4998 177.69 77.4998Z" fill="white"/>
<path d="M200.953 77.4998H195.358C194.929 77.4998 194.517 77.3289 194.213 77.0246C193.909 76.7204 193.739 76.3078 193.739 75.8775C193.739 75.4473 193.909 75.0346 194.213 74.7304C194.517 74.4262 194.929 74.2552 195.358 74.2552H200.953C201.383 74.2552 201.794 74.4262 202.098 74.7304C202.402 75.0346 202.573 75.4473 202.573 75.8775C202.573 76.3078 202.402 76.7204 202.098 77.0246C201.794 77.3289 201.383 77.4998 200.953 77.4998Z" fill="white"/>
<path d="M189.174 77.4998H183.579C183.15 77.4998 182.738 77.3289 182.434 77.0246C182.13 76.7204 181.96 76.3078 181.96 75.8775C181.96 75.4473 182.13 75.0346 182.434 74.7304C182.738 74.4262 183.15 74.2552 183.579 74.2552H189.174C189.604 74.2552 190.016 74.4262 190.319 74.7304C190.623 75.0346 190.794 75.4473 190.794 75.8775C190.794 76.3078 190.623 76.7204 190.319 77.0246C190.016 77.3289 189.604 77.4998 189.174 77.4998Z" fill="white"/>
<path d="M177.69 83.6939H172.095C171.666 83.6939 171.254 83.523 170.95 83.2187C170.646 82.9145 170.475 82.5019 170.475 82.0716C170.475 81.6414 170.646 81.2287 170.95 80.9245C171.254 80.6203 171.666 80.4493 172.095 80.4493H177.69C178.12 80.4493 178.531 80.6203 178.835 80.9245C179.139 81.2287 179.31 81.6414 179.31 82.0716C179.31 82.5019 179.139 82.9145 178.835 83.2187C178.531 83.523 178.12 83.6939 177.69 83.6939Z" fill="white"/>
<path d="M200.953 83.6939H195.358C194.929 83.6939 194.517 83.523 194.213 83.2187C193.909 82.9145 193.739 82.5019 193.739 82.0716C193.739 81.6414 193.909 81.2287 194.213 80.9245C194.517 80.6203 194.929 80.4493 195.358 80.4493H200.953C201.383 80.4493 201.794 80.6203 202.098 80.9245C202.402 81.2287 202.573 81.6414 202.573 82.0716C202.573 82.5019 202.402 82.9145 202.098 83.2187C201.794 83.523 201.383 83.6939 200.953 83.6939Z" fill="white"/>
<path d="M189.174 83.6939H183.579C183.15 83.6939 182.738 83.523 182.434 83.2187C182.13 82.9145 181.96 82.5019 181.96 82.0716C181.96 81.6414 182.13 81.2287 182.434 80.9245C182.738 80.6203 183.15 80.4493 183.579 80.4493H189.174C189.604 80.4493 190.016 80.6203 190.319 80.9245C190.623 81.2287 190.794 81.6414 190.794 82.0716C190.794 82.5019 190.623 82.9145 190.319 83.2187C190.016 83.523 189.604 83.6939 189.174 83.6939Z" fill="white"/>
<path d="M139.851 77.2048C148.145 77.2048 154.869 70.47 154.869 62.162C154.869 53.8541 148.145 47.1193 139.851 47.1193C131.556 47.1193 124.833 53.8541 124.833 62.162C124.833 70.47 131.556 77.2048 139.851 77.2048Z" fill="#CACACA"/>
<path d="M139.851 80.5968C138.68 80.5955 137.557 80.1289 136.729 79.2995C135.901 78.47 135.435 77.3455 135.434 76.1725V48.1516C135.433 47.5703 135.547 46.9945 135.769 46.4573C135.991 45.9201 136.316 45.432 136.726 45.0208C137.136 44.6095 137.623 44.2833 138.159 44.0608C138.696 43.8382 139.27 43.7236 139.851 43.7236C140.431 43.7236 141.006 43.8382 141.542 44.0608C142.078 44.2833 142.565 44.6095 142.975 45.0208C143.385 45.432 143.711 45.9201 143.932 46.4573C144.154 46.9945 144.268 47.5703 144.268 48.1516V76.1725C144.266 77.3455 143.801 78.47 142.972 79.2995C142.144 80.1289 141.022 80.5955 139.851 80.5968Z" fill="white"/>
<path d="M179.085 51.1186H174.962C174.806 51.1186 174.656 51.0565 174.546 50.9458C174.435 50.8352 174.373 50.6851 174.373 50.5287C174.373 50.3722 174.435 50.2222 174.546 50.1116C174.656 50.0009 174.806 49.9388 174.962 49.9388H179.085C179.241 49.9388 179.391 50.0009 179.501 50.1116C179.611 50.2222 179.673 50.3722 179.673 50.5287C179.673 50.6851 179.611 50.8352 179.501 50.9458C179.391 51.0565 179.241 51.1186 179.085 51.1186Z" fill="#E4E4E4"/>
<path d="M185.563 51.2661H181.44C181.284 51.2661 181.134 51.2039 181.024 51.0933C180.913 50.9827 180.851 50.8326 180.851 50.6762C180.851 50.5197 180.913 50.3697 181.024 50.259C181.134 50.1484 181.284 50.0862 181.44 50.0862H185.563C185.719 50.0862 185.869 50.1484 185.979 50.259C186.09 50.3697 186.152 50.5197 186.152 50.6762C186.152 50.8326 186.09 50.9827 185.979 51.0933C185.869 51.2039 185.719 51.2661 185.563 51.2661Z" fill="#E4E4E4"/>
<path d="M192.041 51.4135H187.919C187.762 51.4135 187.613 51.3514 187.502 51.2407C187.392 51.1301 187.33 50.9801 187.33 50.8236C187.33 50.6672 187.392 50.5171 187.502 50.4065C187.613 50.2959 187.762 50.2337 187.919 50.2337H192.041C192.197 50.2337 192.347 50.2959 192.458 50.4065C192.568 50.5171 192.63 50.6672 192.63 50.8236C192.63 50.9801 192.568 51.1301 192.458 51.2407C192.347 51.3514 192.197 51.4135 192.041 51.4135Z" fill="#E4E4E4"/>
<path d="M198.52 51.5611H194.397C194.241 51.5611 194.091 51.4989 193.981 51.3883C193.87 51.2776 193.808 51.1276 193.808 50.9711C193.808 50.8147 193.87 50.6646 193.981 50.554C194.091 50.4434 194.241 50.3812 194.397 50.3812H198.52C198.676 50.3812 198.826 50.4434 198.936 50.554C199.046 50.6646 199.109 50.8147 199.109 50.9711C199.109 51.1276 199.046 51.2776 198.936 51.3883C198.826 51.4989 198.676 51.5611 198.52 51.5611Z" fill="#E4E4E4"/>
<path d="M97.1526 109.207C97.1523 109.938 97.2969 110.661 97.5779 111.335C97.859 112.009 98.2709 112.62 98.7898 113.133H96.3573C95.6396 113.133 94.9289 112.992 94.2659 112.716C93.6028 112.441 93.0004 112.038 92.4929 111.53C91.9854 111.022 91.5829 110.418 91.3082 109.754C91.0336 109.09 90.8922 108.378 90.8922 107.659V18.912C90.8922 18.1931 91.0336 17.4813 91.3082 16.8171C91.5829 16.153 91.9854 15.5495 92.4929 15.0412C93.0004 14.5329 93.6028 14.1297 94.2659 13.8546C94.9289 13.5795 95.6396 13.4379 96.3573 13.4379H99.8971C99.0623 13.9242 98.3694 14.6214 97.8878 15.4599C97.4062 16.2984 97.1527 17.2488 97.1526 18.2162L97.1526 109.207Z" fill="#CACACA"/>
<path d="M276.649 128H0.350582C0.257768 128 0.168849 127.963 0.103315 127.897C0.03778 127.831 0.000976562 127.742 0.000976562 127.649C0.000976562 127.556 0.03778 127.467 0.103315 127.401C0.168849 127.335 0.257768 127.298 0.350582 127.298H276.649C276.742 127.298 276.832 127.335 276.897 127.4C276.963 127.466 277 127.556 277 127.649C277 127.742 276.963 127.831 276.897 127.897C276.832 127.963 276.742 128 276.649 128Z" fill="#CACACA"/>
<path d="M96.5637 39.3704C94.7027 38.8484 92.8348 38.3646 90.96 37.9193C84.5489 36.3863 78.0494 35.2515 71.4986 34.5214C70.3882 34.2285 69.2072 34.3868 68.2128 34.9619C67.2185 35.5369 66.4911 36.4822 66.1892 37.5919L62.9177 49.6851C62.6173 50.7998 62.7708 51.9883 63.3444 52.9898C63.918 53.9913 64.8649 54.7239 65.9773 55.0267L66.0214 55.0356C70.3502 55.5282 74.72 56.2125 79.0663 57.0855C79.4551 57.1622 79.8409 57.2419 80.2295 57.3245C81.6224 57.6135 83.0113 57.9222 84.3962 58.2506C85.0029 58.3922 85.6065 58.5397 86.2131 58.6901C87.8445 59.0971 89.4768 59.5307 91.1102 59.9909C92.9271 60.5041 94.7449 61.0517 96.5637 61.6338C96.7611 61.6928 96.9584 61.7547 97.1526 61.8196V39.5386C96.9584 39.4796 96.7611 39.4235 96.5637 39.3704Z" fill="white"/>
<path d="M96.5637 39.3704C94.7027 38.8484 92.8348 38.3646 90.96 37.9193C84.5489 36.3863 78.0494 35.2515 71.4986 34.5214C70.3882 34.2285 69.2072 34.3868 68.2128 34.9619C67.2185 35.5369 66.4911 36.4822 66.1892 37.5919L62.9177 49.6851C62.6173 50.7998 62.7708 51.9883 63.3444 52.9898C63.918 53.9913 64.8649 54.7239 65.9773 55.0267L66.0214 55.0356C70.3502 55.5282 74.72 56.2125 79.0663 57.0855C79.4551 57.1622 79.8409 57.2419 80.2295 57.3245C81.6224 57.6135 83.0113 57.9222 84.3962 58.2506C85.0029 58.3922 85.6065 58.5397 86.2131 58.6901C87.8445 59.0971 89.4768 59.5307 91.1102 59.9909C92.9271 60.5041 94.7449 61.0517 96.5637 61.6338C96.7611 61.6928 96.9584 61.7547 97.1526 61.8196V61.1972C96.9553 61.1353 96.7581 61.0733 96.5637 61.0114C94.8912 60.4775 93.2206 59.9751 91.5519 59.5042C90.9276 59.3242 90.3033 59.1502 89.679 58.9821C88.5542 58.6783 87.4323 58.3873 86.3133 58.109C85.7185 57.9586 85.1246 57.8141 84.5317 57.6754C84.4876 57.6636 84.4404 57.6548 84.3962 57.643C83.3862 57.4041 82.3742 57.176 81.3602 56.9587C80.9716 56.8761 80.5829 56.7935 80.1941 56.7139C75.5062 55.7405 70.7829 54.9825 66.1096 54.4516C65.1538 54.1849 64.3418 53.5509 63.8504 52.6874C63.359 51.824 63.2281 50.8011 63.486 49.8414L66.7575 37.7452C67.0192 36.7828 67.6514 35.9636 68.5154 35.4676C69.3794 34.9716 70.4046 34.8392 71.366 35.0995L71.4101 35.1054C77.8778 35.8247 84.2955 36.9398 90.6272 38.4443C90.6919 38.462 90.7568 38.4767 90.8215 38.4915C92.7416 38.9516 94.6556 39.4491 96.5636 39.9839C96.758 40.037 96.9553 40.0931 97.1526 40.1521V39.5386C96.9584 39.4796 96.7611 39.4235 96.5637 39.3704Z" fill="#6C63FF"/>
<path d="M97.1526 39.8454V61.507C96.9553 61.4421 96.7611 61.3801 96.5637 61.3182C94.8234 60.7607 93.0773 60.2357 91.3252 59.7431C89.6436 59.2653 87.9563 58.816 86.2633 58.3952C85.6626 58.2477 85.0647 58.1032 84.464 57.9616C84.4404 57.8554 84.4168 57.7492 84.3962 57.643C84.2872 57.1357 84.202 56.6225 84.1371 56.1063C84.1077 55.9087 84.0871 55.7111 84.0664 55.5105C83.7565 52.3505 84.1884 49.1617 85.3275 46.1985C86.4667 43.2354 88.2815 40.58 90.6272 38.4443C90.7126 38.3617 90.8009 38.2821 90.8894 38.2054C92.7916 38.6596 94.6831 39.1512 96.5637 39.6802C96.7611 39.7303 96.9583 39.7864 97.1526 39.8454Z" fill="#6C63FF"/>
<path d="M77.5969 48.7147L69.4077 47.7472C69.1196 47.7131 68.8277 47.7362 68.5485 47.8152C68.2693 47.8941 68.0084 48.0274 67.7806 48.2073C67.5528 48.3873 67.3627 48.6104 67.221 48.8639C67.0793 49.1175 66.9888 49.3965 66.9548 49.6851C66.9208 49.9737 66.9438 50.2661 67.0227 50.5458C67.1015 50.8254 67.2345 51.0868 67.4142 51.3149C67.5938 51.5431 67.8166 51.7336 68.0697 51.8755C68.3229 52.0174 68.6014 52.108 68.8895 52.1421L77.0786 53.1095C77.6597 53.1768 78.2437 53.0106 78.7025 52.6472C79.1614 52.2838 79.4576 51.7529 79.5262 51.1711C79.5948 50.5892 79.4303 50.0038 79.0686 49.5433C78.7069 49.0828 78.1777 48.7848 77.5969 48.7147ZM78.9456 51.1038C78.8943 51.5307 78.6761 51.9198 78.3388 52.1858C78.0015 52.4517 77.5726 52.5729 77.1463 52.5226L68.9571 51.5551C68.5319 51.5032 68.1445 51.2847 67.8798 50.9473C67.6151 50.6099 67.4947 50.1812 67.5449 49.7551C67.5952 49.3289 67.812 48.9401 68.1479 48.6738C68.4838 48.4075 68.9114 48.2853 69.337 48.3342L77.5262 49.3016C77.9524 49.3533 78.341 49.5719 78.6069 49.9095C78.8729 50.2472 78.9946 50.6765 78.9456 51.1038L78.9456 51.1038Z" fill="#6C63FF"/>
<path d="M97.1525 44.9186V55.1919C96.9633 55.3057 96.7665 55.4062 96.5635 55.4928C95.5066 55.9655 94.3348 56.1184 93.1923 55.9329C92.0497 55.7474 90.9861 55.2315 90.1324 54.4486C90.05 54.3749 89.9675 54.2953 89.8879 54.2127C89.8084 54.133 89.7319 54.0475 89.6583 53.962C88.7694 52.9392 88.2556 51.6432 88.2019 50.2883C88.1483 48.9333 88.558 47.6006 89.3632 46.5106C90.1685 45.4206 91.3211 44.6385 92.6304 44.2938C93.9397 43.949 95.3272 44.0623 96.5635 44.6148C96.7652 44.7054 96.9618 44.8068 97.1525 44.9186Z" fill="white"/>
<path d="M96.5636 52.3544C94.2462 52.8382 91.9445 53.374 89.6584 53.962C88.8044 54.1802 87.9534 54.4064 87.1053 54.6403C86.0924 54.9206 85.0794 55.2106 84.0663 55.5105C82.7737 55.8939 81.483 56.2951 80.1941 56.7139C79.8201 56.8378 79.4432 56.9617 79.0662 57.0855C75.4826 58.2831 71.9225 59.6104 68.4212 61.0586C67.307 61.3375 66.3479 62.0461 65.7528 63.03C65.1577 64.0139 64.9748 65.1934 65.2439 66.3118L68.1975 78.4876C68.4708 79.609 69.1771 80.5761 70.1614 81.1766C71.1457 81.7771 72.3275 81.962 73.4478 81.6908L73.489 81.6761C79.2468 79.3105 85.1397 77.2894 91.1366 75.6236C92.927 75.1251 94.736 74.6551 96.5636 74.2137C96.761 74.1665 96.9553 74.1193 97.1525 74.0751V52.2335C96.9552 52.2689 96.761 52.3102 96.5636 52.3544Z" fill="white"/>
<path d="M96.5636 52.3544C94.2462 52.8382 91.9445 53.374 89.6584 53.962C88.8044 54.1802 87.9534 54.4064 87.1053 54.6403C86.0924 54.9206 85.0794 55.2106 84.0663 55.5105C82.7737 55.8939 81.483 56.2951 80.1941 56.7139C79.8201 56.8378 79.4432 56.9617 79.0662 57.0855C75.4826 58.2831 71.9225 59.6104 68.4212 61.0586C67.307 61.3375 66.3479 62.0461 65.7528 63.03C65.1577 64.0139 64.9748 65.1934 65.2439 66.3118L68.1975 78.4876C68.4708 79.609 69.1771 80.5761 70.1614 81.1766C71.1457 81.7771 72.3275 81.962 73.4478 81.6908L73.489 81.6761C79.2468 79.3105 85.1397 77.2894 91.1366 75.6236C92.927 75.1251 94.736 74.6551 96.5636 74.2137C96.761 74.1665 96.9553 74.1193 97.1525 74.0751V73.4674C96.9553 73.5146 96.761 73.5618 96.5636 73.609C96.4164 73.6444 96.2662 73.6798 96.119 73.7152C94.3876 74.137 92.6747 74.5834 90.9805 75.0543C90.9363 75.0661 90.8893 75.0809 90.845 75.0927C84.8783 76.7548 79.0151 78.7689 73.2858 81.1245C72.3197 81.3514 71.3032 81.1871 70.4574 80.6673C69.6115 80.1476 69.0047 79.3144 68.7687 78.349L65.8181 66.1732C65.584 65.2036 65.7433 64.1806 66.261 63.3285C66.7788 62.4765 67.6129 61.8649 68.5802 61.6279L68.6244 61.6131C72.4378 60.0322 76.3188 58.5987 80.2294 57.3245C80.6063 57.2006 80.9833 57.0797 81.3602 56.9587C82.2848 56.6667 83.2105 56.3826 84.1371 56.1063C85.1146 55.8143 86.0913 55.5331 87.0669 55.2627C87.1318 55.245 87.1966 55.2273 87.2613 55.2096C88.2155 54.9471 89.1725 54.6935 90.1324 54.4486C92.2614 53.9059 94.4051 53.4074 96.5636 52.9532C96.758 52.9119 96.9552 52.8706 97.1525 52.8323V52.2335C96.9552 52.2689 96.761 52.3102 96.5636 52.3544Z" fill="#6C63FF"/>
<path d="M97.1526 52.5314V73.7713C96.9583 73.8155 96.7611 73.8597 96.5636 73.9069C94.7203 74.3553 92.8848 74.8331 91.0572 75.3404C90.9835 75.2579 90.9128 75.1753 90.8451 75.0927C88.937 72.8554 87.5351 70.2309 86.7355 67.3996C85.9359 64.5682 85.7577 61.597 86.2131 58.6901C86.2279 58.5928 86.2456 58.4925 86.2632 58.3952C86.2779 58.3008 86.2956 58.2035 86.3133 58.1091C86.4951 57.1432 86.747 56.1919 87.067 55.2627C87.1054 55.1507 87.1436 55.0386 87.1849 54.9265C88.083 54.6787 88.984 54.4408 89.888 54.2127C92.0996 53.6405 94.3248 53.1204 96.5636 52.6524C96.758 52.6081 96.9553 52.5698 97.1526 52.5314Z" fill="#6C63FF"/>
<path d="M83.4686 71.7714C83.2478 71.2282 82.8209 70.7949 82.2816 70.5665C81.7423 70.3381 81.1345 70.3334 80.5917 70.5533L72.9501 73.6562C72.4082 73.8774 71.9761 74.305 71.7487 74.8451C71.5213 75.3852 71.5171 75.9935 71.7371 76.5367C71.9572 77.0798 72.3834 77.5133 72.9222 77.7419C73.461 77.9706 74.0684 77.9757 74.611 77.7561L82.2525 74.6532C82.7944 74.4315 83.2266 74.0038 83.4545 73.4638C83.6824 72.9237 83.6875 72.3152 83.4686 71.7714ZM82.0317 74.1045L74.3901 77.2104C73.992 77.3717 73.5462 77.368 73.1507 77.2003C72.7552 77.0326 72.4423 76.7145 72.2808 76.3159C72.1193 75.9173 72.1223 75.4708 72.2892 75.0744C72.4561 74.678 72.7733 74.3642 73.171 74.2019L80.8125 71.0989C81.2104 70.937 81.6563 70.94 82.0519 71.1074C82.4476 71.2747 82.7607 71.5926 82.9224 71.9912C83.0841 72.3897 83.081 72.8363 82.914 73.2326C82.747 73.629 82.4296 73.9426 82.0317 74.1045Z" fill="#6C63FF"/>
<path d="M97.1526 57.9557V69.5209C96.9585 69.5704 96.7619 69.6098 96.5637 69.6389C95.3814 69.8049 94.1767 69.6108 93.1061 69.0819C92.0354 68.553 91.1484 67.7137 90.5602 66.6731C89.9721 65.6326 89.71 64.4389 89.8081 63.2472C89.9062 62.0555 90.3599 60.9209 91.1102 59.9909C91.178 59.9053 91.2485 59.8227 91.3252 59.7431C91.3958 59.6605 91.4724 59.5809 91.5519 59.5042C92.203 58.8591 92.9941 58.3734 93.8634 58.0848C94.7327 57.7963 95.6568 57.7127 96.5637 57.8406C96.7621 57.8673 96.9587 57.9057 97.1526 57.9557Z" fill="white"/>
<path d="M96.5636 37.8338V67.2734C96.761 67.2085 96.9583 67.1466 97.1525 67.0876V38.1022C96.9553 38.0107 96.761 37.9223 96.5636 37.8338ZM96.5636 37.8338V67.2734C96.761 67.2085 96.9583 67.1466 97.1525 67.0876V38.1022C96.9553 38.0107 96.761 37.9223 96.5636 37.8338ZM96.5636 37.8338V67.2734C96.761 67.2085 96.9583 67.1466 97.1525 67.0876V38.1022C96.9553 38.0107 96.761 37.9223 96.5636 37.8338ZM96.5636 39.984V73.907C96.761 73.8598 96.9583 73.8155 97.1525 73.7713V40.1521C96.9553 40.0931 96.758 40.0371 96.5636 39.984V39.984ZM96.5636 39.984V73.907C96.761 73.8598 96.9583 73.8155 97.1525 73.7713V40.1521C96.9553 40.0931 96.758 40.0371 96.5636 39.984V39.984ZM96.5636 39.984V73.907C96.761 73.8598 96.9583 73.8155 97.1525 73.7713V40.1521C96.9553 40.0931 96.758 40.0371 96.5636 39.984V39.984ZM96.5636 39.984V73.907C96.761 73.8598 96.9583 73.8155 97.1525 73.7713V40.1521C96.9553 40.0931 96.758 40.0371 96.5636 39.984V39.984ZM96.5636 39.984V74.2137C96.761 74.1665 96.9553 74.1193 97.1525 74.0751V40.1521C96.9553 40.0931 96.758 40.0371 96.5636 39.984V39.984ZM225.026 12.0929H102.677C101.056 12.0956 99.503 12.7416 98.3571 13.8893C97.2112 15.0371 96.5663 16.593 96.5636 18.2162V109.207C96.5664 110.83 97.2114 112.386 98.3574 113.533C99.5033 114.68 101.057 115.326 102.677 115.328H225.026C226.646 115.326 228.199 114.68 229.344 113.533C230.49 112.386 231.134 110.83 231.136 109.207V18.2162C231.135 16.5931 230.491 15.0369 229.345 13.8889C228.2 12.7409 226.646 12.095 225.026 12.0929V12.0929ZM230.547 109.207C230.546 110.674 229.963 112.079 228.928 113.116C227.893 114.153 226.49 114.736 225.026 114.738H102.677C101.213 114.736 99.8088 114.153 98.7732 113.117C97.7375 112.08 97.1547 110.674 97.1525 109.207V18.2162C97.1547 16.7493 97.7375 15.3432 98.773 14.3059C99.8086 13.2687 101.212 12.685 102.677 12.6828H225.026C226.49 12.6845 227.894 13.2681 228.929 14.3055C229.964 15.343 230.546 16.7494 230.547 18.2162V109.207ZM96.5636 39.984V73.6091C96.761 73.5619 96.9553 73.5147 97.1525 73.4675V40.1521C96.9553 40.0931 96.758 40.0371 96.5636 39.984V39.984ZM96.5636 39.984V73.907C96.761 73.8598 96.9583 73.8155 97.1525 73.7713V40.1521C96.9553 40.0931 96.758 40.0371 96.5636 39.984V39.984ZM96.5636 39.984V73.907C96.761 73.8598 96.9583 73.8155 97.1525 73.7713V40.1521C96.9553 40.0931 96.758 40.0371 96.5636 39.984V39.984ZM96.5636 39.984V73.907C96.761 73.8598 96.9583 73.8155 97.1525 73.7713V40.1521C96.9553 40.0931 96.758 40.0371 96.5636 39.984V39.984ZM96.5636 37.8338V67.2734C96.761 67.2085 96.9583 67.1466 97.1525 67.0876V38.1022C96.9553 38.0107 96.761 37.9223 96.5636 37.8338ZM96.5636 37.8338V67.2734C96.761 67.2085 96.9583 67.1466 97.1525 67.0876V38.1022C96.9553 38.0107 96.761 37.9223 96.5636 37.8338Z" fill="#2F2E41"/>
<path d="M70.3341 68.9827C70.2187 68.7131 70.0457 68.4721 69.8272 68.2767C69.6087 68.0813 69.3502 67.9363 69.0697 67.8518C68.7892 67.7674 68.4936 67.7455 68.2038 67.7879C67.914 67.8302 67.637 67.9357 67.3923 68.0969L61.7471 63.7521L61.4803 67.4481L66.882 71.0073C67.1796 71.4011 67.611 71.672 68.0946 71.7685C68.5782 71.865 69.0804 71.7804 69.5059 71.5309C69.9314 71.2813 70.2507 70.8841 70.4034 70.4144C70.556 69.9448 70.5314 69.4353 70.3341 68.9827V68.9827Z" fill="#FFB6B6"/>
<path d="M47.586 42.7617L45.7284 41.8824C45.7284 41.8824 42.7358 42.7255 44.1897 46.6893L52.9882 63.1076L63.7301 69.4072L67.0789 66.4348L56.3292 57.9152L47.586 42.7617Z" fill="#3F3D56"/>
</g>
<defs>
<clipPath id="clip0_40_29">
<rect width="277" height="128" fill="white"/>
</clipPath>
</defs>
</svg>
