<svg width="249" height="149" viewBox="0 0 249 149" fill="none" xmlns="http://www.w3.org/2000/svg">
<g clip-path="url(#clip0_40_3)">
<path d="M190.64 147.315C187.452 144.619 185.516 140.36 186.024 136.214C186.532 132.067 189.677 128.256 193.757 127.375C197.837 126.495 202.487 128.932 203.726 132.921C204.408 125.23 205.194 117.218 209.279 110.669C212.978 104.739 219.385 100.495 226.328 99.7362C233.272 98.9771 240.582 101.844 244.912 107.329C249.243 112.815 250.303 120.789 247.27 127.086C245.036 131.726 240.92 135.178 236.607 137.987C222.671 146.987 205.957 150.646 189.539 148.293L190.64 147.315Z" fill="#F2F2F2"/>
<path d="M238.046 102.003C232.317 106.674 227.061 111.897 222.355 117.599C214.989 126.491 209.028 136.46 204.681 147.16C204.363 147.941 205.629 148.28 205.944 147.508C213.057 130.119 224.413 114.792 238.972 102.93C239.626 102.397 238.695 101.475 238.046 102.003Z" fill="white"/>
<path d="M80.1571 146.583C84.5357 142.879 87.1952 137.03 86.4978 131.335C85.8003 125.64 81.4804 120.404 75.8767 119.195C70.2731 117.986 63.8854 121.333 62.1834 126.812C61.2467 116.249 60.1673 105.244 54.5565 96.2486C49.4759 88.1036 40.6764 82.2756 31.1397 81.2329C21.6029 80.1903 11.562 84.1282 5.61425 91.6622C-0.333459 99.1961 -1.78973 110.149 2.37589 118.798C5.44456 125.17 11.0981 129.912 17.0217 133.77C35.9198 146.078 59.3629 151.211 81.6693 147.926" fill="#F2F2F2"/>
<path d="M15.045 84.3465C22.914 90.7616 30.1329 97.9364 36.5975 105.767C43.063 113.59 48.7552 122.022 53.5942 130.944C56.2989 135.95 58.7286 141.099 60.8725 146.369C61.3096 147.442 59.5703 147.908 59.138 146.848C55.3407 137.556 50.6427 128.66 45.1113 120.285C39.6068 111.941 33.3067 104.151 26.2993 97.025C22.3359 92.9963 18.1542 89.1887 13.7731 85.6195C12.8751 84.8877 14.1544 83.6206 15.045 84.3465L15.045 84.3465Z" fill="white"/>
<path d="M178.736 148.674H74.2708V41.3938C74.2708 18.5691 92.8233 0 115.628 0H137.379C160.184 0 178.736 18.5691 178.736 41.3938V148.674Z" fill="#F2F2F2"/>
<path d="M156.984 148.674H74.2706V41.3938C74.2478 32.6479 77.0148 24.123 82.1687 17.0604C82.3587 16.8012 82.5482 16.5454 82.7437 16.2924C85.2366 13.0198 88.2032 10.1378 91.5457 7.74132C91.7345 7.60381 91.9241 7.4687 92.1164 7.33358C94.9133 5.39636 97.9388 3.81272 101.124 2.6187C101.313 2.54695 101.506 2.47505 101.698 2.40609C104.579 1.37714 107.565 0.672314 110.602 0.304626C110.79 0.278887 110.983 0.258746 111.177 0.238605C114.136 -0.0780702 117.12 -0.0780702 120.079 0.238605C120.272 0.258746 120.465 0.278885 120.656 0.304901C123.691 0.672613 126.677 1.37735 129.557 2.4061C129.749 2.47506 129.942 2.54696 130.132 2.61885C133.278 3.7978 136.267 5.35781 139.035 7.26407C139.227 7.39625 139.419 7.53137 139.609 7.66649C141.482 9.00505 143.242 10.4963 144.87 12.125C146.176 13.4314 147.393 14.8239 148.512 16.2932C148.707 16.5454 148.896 16.8013 149.086 17.06C154.24 24.1227 157.007 32.6477 156.984 41.3938V148.674Z" fill="#CCCCCC"/>
<path d="M150.259 100.691C152.788 100.691 154.838 98.6394 154.838 96.1081C154.838 93.5767 152.788 91.5247 150.259 91.5247C147.73 91.5247 145.679 93.5767 145.679 96.1081C145.679 98.6394 147.73 100.691 150.259 100.691Z" fill="#6C63FF"/>
<path d="M170.178 145.461H166.669L165 131.914L170.179 131.915L170.178 145.461Z" fill="#FFB8B8"/>
<path d="M164.163 144.457H170.93V148.722H159.902C159.902 148.162 160.013 147.607 160.227 147.09C160.441 146.572 160.755 146.102 161.15 145.706C161.546 145.31 162.016 144.996 162.533 144.782C163.05 144.567 163.604 144.457 164.163 144.457Z" fill="#2F2E41"/>
<path d="M187.637 145.461H184.128L182.459 131.914L187.638 131.915L187.637 145.461Z" fill="#FFB8B8"/>
<path d="M181.622 144.457H188.389V148.722H177.361C177.361 148.162 177.471 147.607 177.685 147.09C177.899 146.572 178.213 146.102 178.609 145.706C179.005 145.31 179.474 144.996 179.991 144.782C180.508 144.567 181.062 144.457 181.622 144.457Z" fill="#2F2E41"/>
<path d="M152.576 97.016C152.324 96.6438 152.156 96.2206 152.085 95.7765C152.013 95.3323 152.04 94.8778 152.163 94.4451C152.286 94.0125 152.503 93.612 152.797 93.2721C153.091 92.9321 153.457 92.6609 153.867 92.4776L165.795 59.5726L171.664 62.7785L158.045 94.2237C158.307 94.9343 158.3 95.7164 158.024 96.4218C157.749 97.1273 157.224 97.707 156.55 98.0512C155.876 98.3954 155.099 98.4801 154.367 98.2893C153.634 98.0985 152.997 97.6455 152.576 97.016Z" fill="#FFB8B8"/>
<path d="M185.845 103.199C185.455 102.975 185.118 102.669 184.86 102.301C184.601 101.933 184.426 101.513 184.347 101.07C184.268 100.627 184.287 100.172 184.403 99.7373C184.518 99.3026 184.728 98.8985 185.017 98.5536L181.321 63.7457L188.001 64.0512L189.537 98.2892C190.083 98.8129 190.419 99.5191 190.481 100.274C190.542 101.029 190.324 101.78 189.869 102.385C189.414 102.991 188.753 103.408 188.011 103.558C187.27 103.708 186.499 103.58 185.845 103.199Z" fill="#FFB8B8"/>
<path d="M175.189 53.4778C179.071 53.4778 182.218 50.3278 182.218 46.442C182.218 42.5562 179.071 39.4062 175.189 39.4062C171.307 39.4062 168.159 42.5562 168.159 46.442C168.159 50.3278 171.307 53.4778 175.189 53.4778Z" fill="#FFB8B8"/>
<path d="M185.8 95.2827H164.607L164.632 95.1176C164.671 94.8709 168.409 70.3561 165.652 62.336C165.375 61.5479 165.399 60.6852 165.72 59.9139C166.041 59.1426 166.635 58.5174 167.389 58.1584H167.389C171.331 56.3006 178.897 54.013 185.283 59.5647C186.222 60.3951 186.956 61.433 187.426 62.5962C187.896 63.7594 188.089 65.016 187.99 66.2668L185.8 95.2827Z" fill="#6C63FF"/>
<path d="M168.677 73.979L159.136 72.0416L163.608 61.434C163.876 60.4066 164.54 59.5273 165.454 58.9892C166.369 58.451 167.459 58.2978 168.486 58.5632C169.513 58.8286 170.393 59.4909 170.933 60.4049C171.473 61.3188 171.629 62.4098 171.366 63.4385L168.677 73.979Z" fill="#6C63FF"/>
<path d="M180.897 77.5763L180.324 64.4158C179.889 61.9419 181.304 59.6032 183.48 59.2209C185.656 58.84 187.782 60.5559 188.219 63.048L190.375 75.3452L180.897 77.5763Z" fill="#6C63FF"/>
<path d="M185.095 93.7071C188.505 106.706 188.877 123.233 187.957 141.26L183.377 140.687L175.077 106.311L170.498 141.26L165.346 140.973C163.807 122.058 162.309 105.82 164.774 95.1394L185.095 93.7071Z" fill="#2F2E41"/>
<path d="M179.821 51.8795C178.509 53.2776 176.074 52.5271 175.903 50.617C175.89 50.4687 175.891 50.3194 175.906 50.1713C175.994 49.3252 176.483 48.5571 176.366 47.6638C176.339 47.4414 176.256 47.2295 176.125 47.0482C175.08 45.6476 172.627 47.6746 171.641 46.4067C171.036 45.6292 171.747 44.4051 171.283 43.5362C170.67 42.3893 168.856 42.9551 167.718 42.327C166.453 41.6282 166.528 39.6843 167.362 38.502C168.378 37.06 170.159 36.2906 171.919 36.1797C173.678 36.0688 175.426 36.5449 177.068 37.1856C178.935 37.9136 180.786 38.9197 181.934 40.5623C183.331 42.5599 183.465 45.2454 182.767 47.5811C182.342 49.002 180.892 50.7377 179.821 51.8795Z" fill="#2F2E41"/>
<path d="M240.409 148.858H29.1037C29.0135 148.858 28.9271 148.822 28.8634 148.758C28.7997 148.694 28.7639 148.607 28.7639 148.517C28.7639 148.427 28.7997 148.34 28.8634 148.276C28.9271 148.212 29.0135 148.176 29.1037 148.176H240.409C240.499 148.176 240.585 148.212 240.649 148.276C240.713 148.34 240.748 148.427 240.748 148.517C240.748 148.607 240.713 148.694 240.649 148.758C240.585 148.822 240.499 148.858 240.409 148.858Z" fill="#3F3D56"/>
<path d="M134.231 117.593H97.0242C96.5342 117.595 96.0631 117.403 95.7144 117.059C95.3656 116.714 95.1676 116.245 95.1638 115.755V32.6324C95.1676 32.142 95.3656 31.673 95.7144 31.3285C96.0631 30.984 96.5342 30.792 97.0242 30.7946H134.231C134.721 30.792 135.192 30.984 135.541 31.3285C135.89 31.673 136.088 32.142 136.091 32.6324V115.755C136.088 116.245 135.89 116.714 135.541 117.059C135.192 117.403 134.721 117.595 134.231 117.593Z" fill="white"/>
<path d="M136.091 57.6905H95.1638V58.2634H136.091V57.6905Z" fill="#CCCCCC"/>
<path d="M136.234 90.3788H95.3069V90.9517H136.234V90.3788Z" fill="#CCCCCC"/>
<path d="M108.616 30.7947H108.043V117.879H108.616V30.7947Z" fill="#CCCCCC"/>
<path d="M122.926 30.7947H122.353V117.879H122.926V30.7947Z" fill="#CCCCCC"/>
</g>
<defs>
<clipPath id="clip0_40_3">
<rect width="249" height="149" fill="white"/>
</clipPath>
</defs>
</svg>
